<?xml version="1.0" standalone="no"?><!DOCTYPE svg PUBLIC "-//W3C//DTD SVG 1.1//EN" "http://www.w3.org/Graphics/SVG/1.1/DTD/svg11.dtd"><svg class="icon" height="512" fill="red" viewBox="0 0 1097 1024" version="1.1" xmlns="http://www.w3.org/2000/svg"><path d="M762.294857 705.133714c-6.290286-41.142857-81.700571-9.142857-86.272-54.272-6.290286-64 87.442286-202.276571 80.018286-256-6.838857-48.018286-38.838857-58.294857-66.852572-58.843428-26.843429-0.585143-33.718857 3.986286-42.861714 9.142857-5.705143 3.437714-13.129143 9.728-23.442286-0.585143-12.580571-11.995429-22.272-23.442286-38.838857-25.709714-24.576-3.986286-35.437714 3.986286-53.138285 19.419428-6.838857 5.705143-23.990857 25.709714-40.009143 18.285715a1104.164571 1104.164571 0 0 0-48.018286-22.857143c-32.585143-14.299429-80.018286 9.142857-97.133714 40.009143-25.709714 45.714286-75.995429 226.304-83.419429 250.294857-17.152 53.138286 21.723429 97.133714 73.728 94.281143 22.272-1.133714 36.571429-9.142857 50.870857-34.852572 8.009143-14.848 83.419429-215.442286 89.161143-225.133714 3.986286-6.838857 17.700571-16.018286 29.147429-10.276572 11.446857 6.290286 13.714286 18.870857 11.995428 30.281143-2.304 19.419429-55.990857 141.714286-57.709714 155.428572-6.838857 45.714286 53.723429 53.138286 77.129143 8.009143 7.424-14.299429 91.428571-185.161143 98.852571-196.571429 8.557714-12.580571 14.848-16.566857 23.442286-16.018286 6.290286 0 16.566857 1.718857 14.299429 21.723429-2.852571 18.870857-70.290286 144.566857-77.714286 175.433143-9.142857 41.142857 13.129143 82.870857 49.700571 101.156571 22.857143 11.446857 125.147429 31.414857 117.138286-22.272z m-543.451428 123.428572a20.48 20.48 0 0 1-16.018286 24.576 20.150857 20.150857 0 0 1-23.990857-16.018286c-2.304-10.861714 4.571429-22.272 15.433143-24.576s22.272 4.571429 24.576 16.018286z m325.741714 150.308571a29.037714 29.037714 0 0 1-6.838857 40.009143 28.635429 28.635429 0 0 1-40.009143-7.424 29.696 29.696 0 0 1 7.424-40.009143 27.867429 27.867429 0 0 1 39.424 7.424zM101.156571 514.852571a43.081143 43.081143 0 0 1-61.147428 11.446858 44.690286 44.690286 0 0 1-11.446857-61.696 43.666286 43.666286 0 0 1 61.147428-11.995429c20.004571 14.299429 25.161143 41.728 11.446857 62.281143z m737.133715 386.852572c14.299429 21.138286 9.142857 50.285714-11.995429 65.133714-21.138286 14.299429-49.700571 9.142857-64-11.995428s-9.142857-50.285714 11.446857-65.133715c21.138286-14.848 49.700571-9.142857 64.585143 11.995429z m64-345.124572c52.553143 86.272 30.281143 200.009143-52.553143 258.304a186.075429 186.075429 0 0 1-113.700572 34.304c-23.990857 94.281143-138.861714 129.133714-210.285714 65.133715-2.304 1.718857-5.156571 3.437714-7.424 5.705143a170.349714 170.349714 0 0 1-238.848-44.580572 177.005714 177.005714 0 0 1-30.281143-93.696c-130.852571-21.723429-180.004571-188.013714-82.285714-279.442286-56.576-93.696 1.133714-214.857143 106.861714-229.705142 50.285714-132.571429 215.442286-195.437714 327.424-108.580572 134.838857-44.580571 272.566857 58.843429 261.705143 202.276572 82.285714 25.161143 105.728 133.705143 39.424 190.281142zM259.986286 179.419429c10.276571 15.433143 6.838857 36.571429-8.557715 47.433142-14.848 10.276571-35.986286 6.838857-46.299428-8.557714s-6.838857-36.571429 8.557714-47.433143a33.243429 33.243429 0 0 1 46.299429 8.557715zM350.866286 18.870857c2.852571 12.580571-5.156571 25.161143-17.700572 28.013714s-25.161143-5.156571-28.013714-18.285714c-2.304-12.580571 5.705143-25.161143 18.285714-28.013714s25.161143 5.156571 27.428572 18.285714z m677.705143 541.696a27.355429 27.355429 0 0 1-21.138286 33.133714 27.099429 27.099429 0 0 1-32.585143-21.138285 28.233143 28.233143 0 0 1 21.138286-33.718857 27.904 27.904 0 0 1 32.585143 21.723428zM649.142857 50.285714a44.617143 44.617143 0 0 1-15.433143 60.562286 42.971429 42.971429 0 0 1-59.428571-14.848c-12.580571-21.138286-5.705143-48.566857 14.848-61.147429s47.433143-5.705143 60.013714 15.433143z m426.276572 374.857143a20.992 20.992 0 0 1-15.433143 25.161143 21.065143 21.065143 0 0 1-8.557715-41.179429 20.150857 20.150857 0 0 1 23.990858 16.018286z m-109.129143-137.728a38.656 38.656 0 0 1-9.142857 52.553143c-17.152 11.446857-40.557714 7.424-52.004572-9.728s-7.424-40.557714 9.728-52.553143a36.388571 36.388571 0 0 1 51.419429 9.728z" fill="" /></svg>