<svg xmlns="http://www.w3.org/2000/svg" width="128" height="128" viewBox="0 0 128 128"><path d="M85.988 76.075c.632-5.262.443-6.034 4.362-5.182l.995.088c3.014.137 6.957-.485 9.272-1.561c4.986-2.313 7.942-6.177 3.026-5.162c-11.215 2.313-11.986-1.483-11.986-1.483C103.5 45.204 108.451 22.9 104.178 17.44C92.524 2.548 72.35 9.59 72.012 9.773l-.108.021c-2.216-.461-4.695-.735-7.481-.78c-5.075-.083-8.926 1.331-11.847 3.546c0 0-35.989-14.827-34.315 18.646c.356 7.121 10.207 53.882 21.956 39.758c4.294-5.164 8.444-9.531 8.444-9.531c2.061 1.369 4.528 2.067 7.116 1.816l.2-.17c-.062.641-.035 1.268.081 2.01c-3.027 3.383-2.137 3.977-8.189 5.222c-6.122 1.262-2.525 3.508-.178 4.095c2.848.713 9.433 1.722 13.884-4.509l-.177.711c1.188.95 1.107 6.827 1.275 11.026s.45 8.117 1.306 10.429c.856 2.31 1.866 8.261 9.819 6.557c6.646-1.426 11.727-3.476 12.19-22.545"/><path d="M71.208 102.77c-3.518 0-5.808-1.36-7.2-2.674c-2.1-1.981-2.933-4.534-3.43-6.059l-.215-.637c-1.002-2.705-1.341-6.599-1.542-11.613a199 199 0 0 1-.075-2.352c-.017-.601-.038-1.355-.068-2.146a15.2 15.2 0 0 1-3.997 1.264c-2.48.424-5.146.286-7.926-.409c-1.961-.49-3.999-1.506-5.16-3.076c-3.385 2.965-6.614 2.562-8.373 1.976c-3.103-1.035-5.88-3.942-8.491-8.89c-1.859-3.523-3.658-8.115-5.347-13.646c-2.94-9.633-4.808-19.779-4.974-23.109c-.522-10.427 2.284-17.883 8.34-22.16c9.555-6.749 24.03-2.781 29.307-.979c3.545-2.137 7.716-3.178 12.43-3.102c2.532.041 4.942.264 7.181.662c2.335-.734 6.949-1.788 12.23-1.723c9.73.116 17.793 3.908 23.316 10.966c3.941 5.036 1.993 15.61.48 21.466c-2.127 8.235-5.856 16.996-10.436 24.622c1.244.009 3.045-.141 5.607-.669c5.054-1.044 6.531 1.666 6.932 2.879c1.607 4.867-5.378 8.544-7.557 9.555c-2.792 1.297-7.343 2.086-11.071 1.915l-.163-.011l-.979-.086l-.097.816l-.093.799c-.25 9.664-1.631 15.784-4.472 19.829c-2.977 4.239-7.116 5.428-10.761 6.209a16 16 0 0 1-3.396.383m-7.402-35.174c2.271 1.817 2.47 5.236 2.647 11.626c.022.797.043 1.552.071 2.257c.086 2.134.287 7.132 1.069 9.244c.111.298.21.602.314.922c.872 2.672 1.31 4.011 5.081 3.203c3.167-.678 4.794-1.287 6.068-3.101c1.852-2.638 2.888-7.941 3.078-15.767l3.852.094l-3.826-.459l.112-.955c.367-3.148.631-5.424 2.736-6.928c1.688-1.207 3.613-1.09 5.146-.814c-1.684-1.271-2.15-2.765-2.274-3.377l-.321-1.582l.902-1.34c5.2-7.716 9.489-17.199 11.767-26.018c2.34-9.062 1.626-13.875.913-14.785c-9.446-12.071-25.829-7.088-27.539-6.521l-.29.156l-1.45.271l-.743-.154c-2.047-.425-4.321-.66-6.76-.7c-3.831-.064-6.921.841-9.455 2.764l-1.758 1.333l-2.041-.841c-4.358-1.782-17.162-5.365-23.918-.58c-3.75 2.656-5.458 7.861-5.078 15.47c.125 2.512 1.833 12.021 4.647 21.245c3.891 12.746 7.427 16.979 8.903 17.472c.257.087.926-.433 1.591-1.231c4.326-5.203 8.44-9.54 8.613-9.723l2.231-2.347l2.697 1.792c1.087.723 2.286 1.132 3.518 1.209l6.433-5.486l-.932 9.51c-.021.214-.031.504.053 1.044l.28 1.803l-1.213 1.358l-.14.157l3.534 1.632z"/><path fill="#336791" d="M103.646 64.258c-11.216 2.313-11.987-1.484-11.987-1.484c11.842-17.571 16.792-39.876 12.52-45.335C92.524 2.547 72.35 9.59 72.013 9.773l-.109.019c-2.216-.459-4.695-.733-7.482-.778c-5.075-.083-8.925 1.33-11.846 3.545c0 0-35.99-14.826-34.316 18.647c.356 7.121 10.207 53.882 21.956 39.758c4.294-5.164 8.443-9.531 8.443-9.531c2.061 1.369 4.528 2.067 7.115 1.816l.201-.17c-.062.641-.034 1.268.08 2.01c-3.026 3.383-2.138 3.977-8.188 5.222c-6.123 1.262-2.526 3.508-.177 4.095c2.847.713 9.433 1.722 13.883-4.509l-.178.711c1.186.95 2.019 6.179 1.879 10.919s-.233 7.994.702 10.536s1.866 8.261 9.82 6.557c6.646-1.425 10.09-5.116 10.57-11.272c.34-4.377 1.109-3.73 1.158-7.644l.618-1.853c.711-5.934.113-7.848 4.208-6.957l.995.087c3.014.138 6.958-.485 9.273-1.561c4.986-2.314 7.943-6.177 3.028-5.162"/><path fill="#fff" d="M71.61 100.394c-6.631.001-8.731-5.25-9.591-7.397c-1.257-3.146-1.529-15.358-1.249-25.373a1.286 1.286 0 0 1 2.57.072c-.323 11.551.136 22.018 1.066 24.346c1.453 3.632 3.656 6.809 9.887 5.475c5.915-1.269 8.13-3.512 9.116-9.23c.758-4.389 2.254-16.874 2.438-19.338a1.285 1.285 0 0 1 2.563.191c-.192 2.564-1.682 15.026-2.469 19.584c-1.165 6.755-4.176 9.819-11.11 11.306a15.5 15.5 0 0 1-3.221.364M35.659 74.749a5.3 5.3 0 0 1-1.704-.281c-4.307-1.437-8.409-8.451-12.193-20.849c-2.88-9.438-4.705-19.288-4.865-22.489c-.475-9.49 1.97-16.205 7.265-19.957c10.476-7.423 28.1-.354 28.845-.05a1.285 1.285 0 0 1-.972 2.379v.001c-.17-.07-17.07-6.84-26.392-.229c-4.528 3.211-6.607 9.175-6.18 17.729c.135 2.696 1.84 12.311 4.757 21.867c3.378 11.067 7.223 18.052 10.548 19.16c.521.175 2.109.704 4.381-2.026c4.272-5.14 8.197-9.242 8.236-9.283a1.286 1.286 0 0 1 1.856 1.778c-.039.04-3.904 4.081-8.116 9.148c-1.995 2.398-3.908 3.102-5.466 3.102m55.92-10.829a1.284 1.284 0 0 1-1.065-2.004c11.971-17.764 16.173-39.227 12.574-43.825c-4.53-5.788-10.927-8.812-19.012-8.985c-5.987-.13-10.746 1.399-11.523 1.666l-.195.079c-.782.246-1.382-.183-1.608-.684a1.29 1.29 0 0 1 .508-1.631l.346-.142l-.017.005l.018-.006c1.321-.483 6.152-1.933 12.137-1.864c8.947.094 16.337 3.545 21.371 9.977c2.382 3.044 2.387 10.057.015 19.24c-2.418 9.362-6.968 19.425-12.482 27.607a1.28 1.28 0 0 1-1.067.567m.611 8.223c-2.044 0-3.876-.287-4.973-.945c-1.128-.675-1.343-1.594-1.371-2.081c-.308-5.404 2.674-6.345 4.195-6.774c-.212-.32-.514-.697-.825-1.086c-.887-1.108-2.101-2.626-3.037-4.896c-.146-.354-.606-1.179-1.138-2.133c-2.883-5.169-8.881-15.926-5.028-21.435c1.784-2.549 5.334-3.552 10.566-2.992c-1.539-4.689-8.869-19.358-26.259-19.643c-5.231-.088-9.521 1.521-12.744 4.775c-7.217 7.289-6.955 20.477-6.952 20.608a1.284 1.284 0 1 1-2.569.067c-.016-.585-.286-14.424 7.695-22.484c3.735-3.772 8.651-5.634 14.612-5.537C75.49 7.77 82.651 13.426 86.7 18.14c4.412 5.136 6.576 10.802 6.754 12.692c.133 1.406-.876 1.688-1.08 1.729l-.463.011c-5.135-.822-8.429-.252-9.791 1.695c-2.931 4.188 2.743 14.363 5.166 18.709c.619 1.108 1.065 1.909 1.269 2.404c.796 1.93 1.834 3.227 2.668 4.269c.733.917 1.369 1.711 1.597 2.645c.105.185 1.603 2.399 10.488.565c2.227-.459 3.562-.066 3.97 1.168c.803 2.429-3.702 5.261-6.196 6.42c-2.238 1.039-5.805 1.696-8.892 1.696m-3.781-3.238c.281.285 1.691.775 4.612.65c2.596-.112 5.335-.677 6.979-1.439c2.102-.976 3.504-2.067 4.231-2.812l-.404.074c-5.681 1.173-9.699 1.017-11.942-.465a5 5 0 0 1-.435-.323c-.243.096-.468.159-.628.204c-1.273.357-2.589.726-2.413 4.111m-36.697 7.179c-1.411 0-2.896-.191-4.413-.572c-1.571-.393-4.221-1.576-4.18-3.519c.045-2.181 3.216-2.835 4.411-3.081c4.312-.888 4.593-1.244 5.941-2.955c.393-.499.882-1.12 1.548-1.865c.99-1.107 2.072-1.669 3.216-1.669c.796 0 1.45.271 1.881.449c1.376.57 2.524 1.948 2.996 3.598c.426 1.488.223 2.92-.572 4.032c-2.608 3.653-6.352 5.582-10.828 5.582m-5.817-3.98c.388.299 1.164.699 2.027.916c1.314.328 2.588.495 3.79.495c3.662 0 6.601-1.517 8.737-4.506c.445-.624.312-1.415.193-1.832c-.25-.872-.87-1.665-1.509-1.931c-.347-.144-.634-.254-.898-.254c-.142 0-.573 0-1.3.813c-.614.686-1.055 1.246-1.446 1.741c-1.678 2.131-2.447 2.854-7.441 3.883c-1.218.252-1.843.506-2.153.675m9.882-5.928a1.286 1.286 0 0 1-1.269-1.09a6 6 0 0 1-.064-.644c-3.274-.062-6.432-1.466-8.829-3.968c-3.031-3.163-4.411-7.545-3.785-12.022c.68-4.862.426-9.154.289-11.46a26 26 0 0 1-.063-1.425c.002-.406.01-1.485 3.615-3.312c1.282-.65 3.853-1.784 6.661-2.075c4.654-.48 7.721 1.592 8.639 5.836c2.478 11.46.196 16.529-1.47 20.23c-.311.688-.604 1.34-.838 1.97l-.207.557c-.88 2.36-1.641 4.399-1.407 5.923a1.287 1.287 0 0 1-1.075 1.466zM44.634 35.922l.051.918c.142 2.395.406 6.853-.31 11.969c-.516 3.692.612 7.297 3.095 9.888c1.962 2.048 4.546 3.178 7.201 3.178h.055c.298-1.253.791-2.575 1.322-4l.206-.553c.265-.712.575-1.401.903-2.13c1.604-3.564 3.6-8 1.301-18.633c-.456-2.105-1.56-3.324-3.375-3.726c-3.728-.824-9.283 1.98-10.449 3.089m7.756-.545c-.064.454.833 1.667 2.001 1.829c1.167.163 2.166-.785 2.229-1.239s-.833-.955-2.002-1.118c-1.167-.163-2.166.073-2.228.528m2.27 2.277l-.328-.023c-.725-.101-1.458-.558-1.959-1.223c-.176-.233-.464-.687-.407-1.091c.082-.593.804-.947 1.933-.947q.381 0 .78.055c.616.086 1.189.264 1.612.5c.733.41.787.866.754 1.103c-.091.653-1.133 1.626-2.385 1.626m-1.844-2.201c.037.28.73 1.205 1.634 1.33l.209.015c.834 0 1.458-.657 1.531-.872c-.077-.146-.613-.511-1.631-.651a5 5 0 0 0-.661-.048c-.652-.001-1.001.146-1.082.226m35.121-1.003c.063.455-.832 1.668-2.001 1.83c-1.168.162-2.167-.785-2.231-1.24c-.062-.454.834-.955 2.002-1.117c1.168-.164 2.166.074 2.23.527m-2.27 2.062c-1.125 0-2.094-.875-2.174-1.442c-.092-.681 1.029-1.199 2.185-1.359q.383-.054.749-.054c.997 0 1.657.293 1.723.764c.043.306-.191.777-.595 1.201c-.266.28-.826.765-1.588.87zm.759-2.427q-.336 0-.69.049c-1.162.161-1.853.628-1.82.878c.039.274.78 1.072 1.75 1.072l.239-.017c.634-.089 1.11-.502 1.337-.741c.356-.375.498-.727.481-.848c-.021-.157-.449-.393-1.297-.393m3.194 26.453a1.285 1.285 0 0 1-1.067-2c2.736-4.087 2.235-8.256 1.751-12.286c-.207-1.718-.42-3.493-.364-5.198c.056-1.753.278-3.199.494-4.599c.255-1.657.496-3.224.396-5.082a1.286 1.286 0 0 1 2.567-.138c.114 2.124-.159 3.896-.423 5.611c-.204 1.323-.415 2.691-.466 4.29c-.049 1.509.144 3.112.348 4.808c.516 4.287 1.099 9.146-2.167 14.023c-.248.37-.655.571-1.069.571"/><path d="M2.835 103.184a26 26 0 0 1 4.343-.338c2.235 0 3.874.52 4.914 1.456c.962.832 1.534 2.106 1.534 3.667c0 1.586-.469 2.834-1.353 3.744c-1.196 1.274-3.146 1.924-5.356 1.924c-.676 0-1.3-.026-1.819-.156v7.021H2.835zm2.263 8.45c.494.13 1.118.182 1.872.182c2.729 0 4.394-1.326 4.394-3.744c0-2.314-1.638-3.432-4.134-3.432c-.988 0-1.742.078-2.132.182zm22.23 2.47c0 4.654-3.225 6.683-6.267 6.683c-3.406 0-6.032-2.496-6.032-6.475c0-4.212 2.756-6.682 6.24-6.682c3.615-.001 6.059 2.626 6.059 6.474m-9.984.13c0 2.756 1.586 4.836 3.822 4.836c2.184 0 3.821-2.054 3.821-4.888c0-2.132-1.065-4.836-3.77-4.836s-3.873 2.496-3.873 4.888m12.557 3.926c.676.442 1.872.91 3.016.91c1.664 0 2.444-.832 2.444-1.872c0-1.092-.649-1.69-2.34-2.314c-2.262-.806-3.328-2.054-3.328-3.562c0-2.028 1.638-3.692 4.342-3.692c1.274 0 2.393.364 3.095.78l-.572 1.664a4.9 4.9 0 0 0-2.574-.728c-1.352 0-2.106.78-2.106 1.716c0 1.04.755 1.508 2.393 2.132c2.184.832 3.302 1.924 3.302 3.796c0 2.21-1.716 3.77-4.706 3.77c-1.378 0-2.652-.338-3.536-.858zm13.365-13.859v3.614h3.275v1.742h-3.275v6.786c0 1.56.441 2.444 1.716 2.444a5 5 0 0 0 1.326-.156l.104 1.716c-.441.182-1.144.312-2.027.312c-1.066 0-1.925-.338-2.471-.962c-.649-.676-.884-1.794-.884-3.276v-6.864h-1.95v-1.742h1.95v-3.016zm16.536 3.615c-.053.91-.104 1.924-.104 3.458v7.306c0 2.886-.572 4.654-1.794 5.747c-1.222 1.144-2.99 1.508-4.576 1.508c-1.508 0-3.172-.364-4.187-1.04l.572-1.742c.832.52 2.132.988 3.692.988c2.34 0 4.056-1.222 4.056-4.394v-1.404h-.052c-.702 1.17-2.054 2.106-4.004 2.106c-3.12 0-5.356-2.652-5.356-6.137c0-4.264 2.782-6.682 5.668-6.682c2.185 0 3.381 1.144 3.927 2.184h.052l.104-1.898zm-2.366 4.966c0-.39-.026-.728-.13-1.04c-.416-1.326-1.534-2.418-3.198-2.418c-2.185 0-3.744 1.846-3.744 4.758c0 2.47 1.248 4.524 3.718 4.524c1.404 0 2.678-.884 3.172-2.34c.13-.39.183-.832.183-1.222v-2.262zm5.901-1.04c0-1.482-.026-2.756-.104-3.926h2.003l.077 2.47h.104c.572-1.69 1.95-2.756 3.484-2.756c.26 0 .441.026.649.078v2.158a3.4 3.4 0 0 0-.779-.078c-1.612 0-2.757 1.222-3.068 2.938a6.4 6.4 0 0 0-.104 1.066v6.708h-2.262zm9.517 2.782c.052 3.094 2.027 4.368 4.315 4.368c1.639 0 2.626-.286 3.484-.65l.39 1.638c-.806.364-2.184.78-4.186.78c-3.874 0-6.188-2.548-6.188-6.344s2.236-6.787 5.902-6.787c4.108 0 5.2 3.614 5.2 5.928c0 .468-.052.832-.078 1.066h-8.839zm6.708-1.638c.025-1.456-.599-3.718-3.172-3.718c-2.314 0-3.328 2.132-3.511 3.718z"/><path fill="#336791" d="M84.371 117.744a8 8 0 0 0 4.056 1.144c2.314 0 3.666-1.222 3.666-2.99c0-1.638-.936-2.574-3.302-3.484c-2.86-1.014-4.628-2.496-4.628-4.966c0-2.73 2.262-4.758 5.668-4.758c1.794 0 3.094.416 3.874.858l-.624 1.846a7 7 0 0 0-3.328-.832c-2.392 0-3.302 1.43-3.302 2.626c0 1.638 1.065 2.444 3.484 3.38c2.964 1.145 4.472 2.574 4.472 5.148c0 2.704-2.002 5.044-6.136 5.044c-1.69 0-3.536-.494-4.473-1.118zm27.586 5.33a95 95 0 0 1-6.708-2.028c-.364-.13-.728-.26-1.066-.26c-4.16-.156-7.722-3.224-7.722-8.866c0-5.616 3.432-9.23 8.164-9.23c4.758 0 7.853 3.692 7.853 8.866c0 4.498-2.08 7.384-4.992 8.398v.104c1.742.442 3.64.858 5.122 1.118zm-1.872-11.414c0-3.51-1.819-7.125-5.538-7.125c-3.822 0-5.694 3.536-5.668 7.333c-.026 3.718 2.028 7.072 5.564 7.072c3.615 0 5.642-3.276 5.642-7.28m5.329-8.684h2.263v15.626h7.488v1.898h-9.751z"/></svg>