<svg xmlns="http://www.w3.org/2000/svg" width="24" height="24" viewBox="0 0 24 24"><path fill="currentColor" d="M16.405 5.501c-.115 0-.193.014-.274.033v.013h.014c.054.104.146.18.214.273c.054.107.1.214.154.32l.014-.015c.094-.066.14-.172.14-.333c-.04-.047-.046-.094-.08-.14c-.04-.067-.126-.1-.18-.153zM5.77 18.695h-.927a51 51 0 0 0-.27-4.41h-.008l-1.41 4.41H2.45l-1.4-4.41h-.01a73 73 0 0 0-.195 4.41H0q.083-2.95.41-5.53h1.15l1.335 4.064h.008l1.347-4.064h1.095q.363 3.024.428 5.53zm4.017-4.08q-.567 3.069-1.492 4.46q-.723 1.074-1.583 1.073q-.228 0-.566-.138v-.494q.166.026.386.026q.402 0 .647-.222q.295-.27.295-.605q0-.233-.23-.944L6.23 14.615h.91l.727 2.36q.247.804.205 1.123q.6-1.598.835-3.483zm12.325 4.08h-2.63v-5.53h.885v4.85h1.745zm-3.32.135l-1.016-.5q.136-.113.255-.25q.649-.76.648-2.253q0-2.745-2.155-2.746q-1.056 0-1.65.697q-.646.762-.646 2.245q-.001 1.459.574 2.14q.524.615 1.583.615q.396 0 .725-.098l1.325.772l.36-.622zM15.5 17.588q-.337-.541-.337-1.736q0-2.09 1.27-2.09q.666 0 .977.5q.336.543.336 1.723q0 2.107-1.27 2.108q-.667 0-.978-.5zm-1.658-.425q0 .706-.516 1.156q-.514.45-1.384.45c-.543 0-1.064-.172-1.573-.515l.237-.476q.656.329 1.19.328q.498 0 .783-.22a.75.75 0 0 0 .3-.615c0-.33-.23-.61-.648-.845c-.388-.213-1.163-.657-1.163-.657c-.422-.307-.632-.636-.632-1.177q0-.674.47-1.085q.471-.416 1.22-.415q.769 0 1.4.41l-.213.476a2.7 2.7 0 0 0-1.064-.23q-.425 0-.654.206a.69.69 0 0 0-.248.524c0 .328.234.61.666.85c.393.215 1.187.67 1.187.67c.433.305.648.63.648 1.168zm9.382-5.852c-.535-.014-.95.04-1.297.188c-.1.04-.26.04-.274.167c.055.053.063.14.11.214c.08.134.218.313.346.407q.208.167.427.31c.26.16.555.255.81.416c.145.094.293.213.44.313c.073.05.12.14.214.172v-.02c-.046-.06-.06-.147-.105-.214c-.067-.067-.134-.127-.2-.193a3.2 3.2 0 0 0-.695-.675c-.214-.146-.682-.35-.77-.595l-.013-.014c.146-.013.32-.066.46-.106c.227-.06.435-.047.67-.106q.16-.042.32-.094v-.06c-.12-.12-.21-.283-.334-.395a9 9 0 0 0-1.104-.823c-.21-.134-.476-.22-.697-.334c-.08-.04-.214-.06-.26-.127c-.12-.146-.19-.34-.275-.514a18 18 0 0 1-.547-1.163c-.12-.262-.193-.523-.34-.763c-.69-1.137-1.437-1.826-2.586-2.5c-.247-.14-.543-.2-.856-.274c-.167-.008-.334-.02-.5-.027c-.11-.047-.216-.174-.31-.235c-.38-.24-1.364-.76-1.644-.072c-.18.434.267.862.422 1.082c.115.153.26.328.34.5c.047.116.06.235.107.356c.106.294.207.622.347.897c.073.14.153.287.247.413c.054.073.146.107.167.227c-.094.136-.1.334-.154.5c-.24.757-.146 1.693.194 2.25c.107.166.362.534.703.393c.3-.12.234-.5.32-.835c.02-.08.007-.133.048-.187v.015c.094.188.188.367.274.555c.206.328.566.668.867.895c.16.12.287.328.487.402v-.02h-.015c-.043-.058-.1-.086-.154-.133a3.5 3.5 0 0 1-.35-.4a9 9 0 0 1-.747-1.218c-.11-.21-.202-.436-.29-.643c-.04-.08-.04-.2-.107-.24c-.1.146-.247.273-.32.453c-.127.288-.14.642-.188 1.01c-.027.007-.014 0-.027.014c-.214-.052-.287-.274-.367-.46c-.2-.475-.233-1.238-.06-1.785c.047-.14.247-.582.167-.716c-.042-.127-.174-.2-.247-.303a2.5 2.5 0 0 1-.24-.427c-.16-.374-.24-.788-.414-1.162c-.08-.173-.22-.354-.334-.513c-.127-.18-.267-.307-.368-.52c-.033-.073-.08-.194-.027-.274c.014-.054.042-.075.094-.09c.088-.072.335.022.422.062c.247.1.455.194.662.334c.094.066.195.193.315.226h.14c.214.047.455.014.655.073c.355.114.675.28.962.46a5.95 5.95 0 0 1 2.085 2.286c.08.154.115.295.188.455c.14.33.313.663.455.982c.14.315.275.636.476.897c.1.14.502.213.682.286c.133.06.34.115.46.188c.23.14.454.3.67.454c.11.076.443.243.463.378"/></svg>